<svg xmlns="http://www.w3.org/2000/svg" xmlns:xlink="http://www.w3.org/1999/xlink" viewBox="0 0 139.5 185.25"><defs><style>.cls-1,.cls-5{fill:#baced3;}.cls-1,.cls-3,.cls-4,.cls-5{stroke:#333;}.cls-1,.cls-10,.cls-11,.cls-12,.cls-13,.cls-14,.cls-3,.cls-4,.cls-5,.cls-6,.cls-7,.cls-8,.cls-9{stroke-miterlimit:10;}.cls-1,.cls-3,.cls-4{stroke-width:5px;}.cls-2{fill:#999;opacity:0.79;}.cls-3{fill:url(#linear-gradient);}.cls-4{fill:#ba7d1c;}.cls-5{stroke-width:3px;}.cls-10,.cls-11,.cls-12,.cls-13,.cls-14,.cls-6,.cls-7,.cls-9{fill:none;}.cls-6{stroke:#c7b299;}.cls-12,.cls-6{stroke-width:4px;}.cls-14,.cls-7{stroke:#f2f2f2;}.cls-10,.cls-7,.cls-8{stroke-width:20px;}.cls-7{opacity:0.68;}.cls-8{stroke:#999;fill:url(#linear-gradient-2);}.cls-11,.cls-12,.cls-13,.cls-9{stroke:#e6e6e6;}.cls-9{stroke-width:22px;opacity:0.53;}.cls-10{stroke:#666;opacity:0.5;}.cls-11{stroke-width:17px;opacity:0.54;}.cls-12{opacity:0.77;}.cls-13{stroke-width:2px;opacity:0.87;}.cls-14{stroke-width:23px;opacity:0.14;}</style><linearGradient id="linear-gradient" x1="114.71" y1="105.72" x2="24.79" y2="105.72" gradientUnits="userSpaceOnUse"><stop offset="0" stop-color="#301602"/><stop offset="0.32" stop-color="#331803"/><stop offset="0.58" stop-color="#3e2007"/><stop offset="0.83" stop-color="#4f2c0d"/><stop offset="1" stop-color="#603813"/></linearGradient><linearGradient id="linear-gradient-2" x1="-122.32" y1="201.47" x2="-88.34" y2="201.47" gradientTransform="matrix(0.61, 0.04, 0.04, 1.38, 153.83, -110.65)" xlink:href="#linear-gradient"/></defs><g id="Layer_2" data-name="Layer 2"><g id="Layer_1-2" data-name="Layer 1"><path class="cls-1" d="M136.22,13.45H4.06L22.54,166h0c0,9.24,21,16.74,46.82,16.74s46.81-7.5,46.81-16.74h0C122.46,115.57,129.93,63.89,136.22,13.45Z"/><ellipse class="cls-2" cx="70.53" cy="153.42" rx="27.76" ry="5.86"/><path class="cls-3" d="M114.71,66.23H24.79L36.68,137.4h0c0,4.32,14.75,7.81,32.93,7.81s32.93-3.49,32.93-7.81h0C107,113.87,110.29,89.76,114.71,66.23Z"/><ellipse class="cls-1" cx="69.75" cy="12.67" rx="67.25" ry="10.17"/><path class="cls-4" d="M114.09,68.67c0,3.78-21.33,5.38-45.08,5.38s-39.14-3.52-43-6.84l-1.38-1.6L20.49,49.67V45.38c.9-3.65,25.34-4.73,48.52-4.73s51.06.47,52,4.12l-1.38,6.13-3.44,12.25Z"/><ellipse class="cls-4" cx="70.53" cy="45.35" rx="50.05" ry="8.44"/><ellipse class="cls-5" cx="68.97" cy="12.67" rx="54.35" ry="4.69"/><path class="cls-6" d="M99.51,43.19c.9-.14,7.44-1.08,12.14.42.51.16,3.41,1.09,3,2.1-.46,1.22-5.42,1.79-8.09,2.1a88.37,88.37,0,0,1-9.11.42c-2.09,0-3.83,0-5,0"/><path class="cls-6" d="M31,45.12c4.24-2.66,8.84-2.42,11.47-3.13,4.48-1.21,8.3-1.36,13.15-1.56,3.4-.14,6.23-.09,8.23,0"/><path class="cls-6" d="M47.46,49.77c4.23.15,9.27.26,15,.27,6.28,0,11.79-.11,16.32-.27"/><path class="cls-7" d="M31.43,162a58.44,58.44,0,0,0,31.28,6.26"/><path class="cls-8" d="M88.24,167.74c3,.76,7.79,1.06,13.08-2.86a30.4,30.4,0,0,0,7.14-7.94"/><path class="cls-9" d="M16.18,27.13A205.91,205.91,0,0,1,36.06,98.24a199.91,199.91,0,0,1-1.81,50.1"/><path class="cls-10" d="M108.41,151.23a464,464,0,0,1,6.28-75.7,474.91,474.91,0,0,1,11.75-52.31"/><path class="cls-11" d="M75.61,49.81A42.91,42.91,0,0,1,77.18,35a42.2,42.2,0,0,1,3.13-7.82"/><path class="cls-12" d="M25.57,6.8C30.84,6,35.28,5.68,38.43,5.5c7.37-.44,13.33-.25,21.42,0,4.3.13,7.85.3,10.29.43"/><path class="cls-13" d="M84.22,19.31q12.24-.84,25.47-2.34c8-.92,15.65-2,23-3.13"/><path class="cls-14" d="M68,156.16a282.4,282.4,0,0,1,6.07-86"/></g></g></svg>