<svg xmlns="http://www.w3.org/2000/svg" viewBox="0 0 202.08 180.08"><defs><style>.cls-1{fill:#bcbbbb;}.cls-1,.cls-2,.cls-3{stroke:#333;}.cls-1,.cls-2,.cls-3,.cls-4,.cls-5,.cls-6,.cls-7{stroke-miterlimit:10;}.cls-1,.cls-2,.cls-4{stroke-width:5px;}.cls-2{fill:#8e8d8d;}.cls-3{fill:#e6e6e6;stroke-width:3px;}.cls-4,.cls-5,.cls-6,.cls-7{fill:none;}.cls-4,.cls-5{stroke:gray;}.cls-5{stroke-width:4px;}.cls-6{stroke:#e6e6e6;stroke-width:9px;}.cls-7{stroke:#666;stroke-width:8px;}</style></defs><g id="Layer_2" data-name="Layer 2"><g id="Layer_1-2" data-name="Layer 1"><path class="cls-1" d="M152.74,45.08c11.85,1.23,20.56,2.19,24,2.39a8,8,0,0,1,4.53,1.6,8.52,8.52,0,0,1,2.59,3.19,12.75,12.75,0,0,1,.65,7.19c-1.85,12.13-9.65,65.16-9.72,65.44h0l-4.53,2.39-16.19.8-1.82,8.5,25-1,7-3h0c.1-.35,12.14-66.8,15-82,.27-1.46,1-5.45-1-9a11.81,11.81,0,0,0-4-4,14.18,14.18,0,0,0-7-2c-5.26-.26-18.7-1.46-37-3Z"/><path class="cls-1" d="M4.22,11.58a160.84,160.84,0,0,1,11,24,187.7,187.7,0,0,1,7,26c3.55,19,3.19,54.35-6,98l4,3c21,8,23,15,69,15,35,0,51-9,68-16l3-2c-5.5-57.92-6-68-6-68a460.78,460.78,0,0,1,3-79"/><path class="cls-2" d="M40.2,21.49c-13.13-3.33-24.88-6.35-36.68-9.87C2,11.17,2.25,8.53,3.82,8.5c11.66-.29,24.73-1.44,36.39-2.36h0A300.81,300.81,0,0,1,94.47,2.59c28.37.72,63.76,5.64,63.75,10.63S115,27.58,88.22,27.58c-25,0-33-2-48-6.09Z"/><path class="cls-3" d="M82.22,27.58c21.23-.19,43-5,59.43-9a.82.82,0,0,0,.07-.3c0-3.44-25.52-6.22-57-6.22s-57,2.78-57,6.22h0C43.6,20,61.74,27.76,82.22,27.58Z"/><path class="cls-4" d="M180.72,44.77A6.54,6.54,0,0,1,189,46.83c2.38,3.06,2.69,7.28,2.75,8.25"/><path class="cls-5" d="M164.72,131.08c11.43-.29,16-1.72,16-1.72"/><path class="cls-6" d="M37.85,35.07a215.56,215.56,0,0,1,9.88,52.78,218.39,218.39,0,0,1-6.14,66.23"/><path class="cls-7" d="M138.22,36.58a412.55,412.55,0,0,0,2,115"/><path class="cls-4" d="M17.72,33.08A9.55,9.55,0,0,1,24.28,37c4,5.08,4,12.57,3.94,13.61"/></g></g></svg>