<svg xmlns="http://www.w3.org/2000/svg" viewBox="0 0 249.98 150.31"><defs><style>.cls-1,.cls-3{fill:#f4e7cb;}.cls-2,.cls-5{fill:none;}.cls-2,.cls-3,.cls-4{stroke:#333;stroke-width:5px;}.cls-2,.cls-3,.cls-4,.cls-5{stroke-miterlimit:10;}.cls-4{fill:#c7b299;}.cls-5{stroke:#fff;stroke-width:11px;}</style></defs><g id="Layer_2" data-name="Layer 2"><g id="Layer_1-2" data-name="Layer 1"><path class="cls-1" d="M165.42,118.5c4.63-.13,11.57-.39,20-1,17.54-1.27,26.31-1.9,32-4,11.57-4.28,28.92-16.77,30-36,.85-15-8.45-31-22-36-2.21-.82-10.34-3.84-19,0-10.86,4.82-13.67,16.51-14,18l1,21a110.28,110.28,0,0,1,12-20c4.77-6.3,6.85-7.58,9-8,6.24-1.23,12.91,4.74,16,10,5.4,9.18,2.6,20.76-2,28-6.71,10.56-18.2,13.33-21,14-5.59,1.35-12.06.9-25,0-4.58-.32-8.38-.7-11-1Z"/><path class="cls-2" d="M165.42,118.5c4.63-.13,11.57-.39,20-1,17.54-1.27,26.31-1.9,32-4,11.57-4.28,28.92-16.77,30-36,.85-15-8.45-31-22-36-2.21-.82-10.34-3.84-19,0-10.86,4.82-13.67,16.51-14,18l1,21a110.28,110.28,0,0,1,12-20c4.77-6.3,6.85-7.58,9-8,6.24-1.23,12.91,4.74,16,10,5.4,9.18,2.6,20.76-2,28-6.71,10.56-18.2,13.33-21,14-5.59,1.35-12.06.9-25,0-4.58-.32-8.38-.7-11-1Z"/><path class="cls-1" d="M201.42,21c4.59,50.21-19.52,95-57.87,116.29-4,2.2-44.2,21.89-85.81,1C20.07,119.43-2.43,69.7,3.42,21.5"/><path class="cls-2" d="M201.42,21c4.59,50.21-19.52,95-57.87,116.29-4,2.2-44.2,21.89-85.81,1C20.07,119.43-2.43,69.7,3.42,21.5"/><path class="cls-3" d="M201.42,22c0,8.56-44.32,21.5-99,21.5s-99-12.94-99-21.5,44.33-19.5,99-19.5S201.42,13.44,201.42,22Z"/><path class="cls-4" d="M182.42,21.5c0,4.42-34.82,14-79,14s-81-9.58-81-14,35.82-11,80-11S182.42,17.08,182.42,21.5Z"/><path class="cls-3" d="M185.42,56.5a99.18,99.18,0,0,1-16,41,99.82,99.82,0,0,1-40,34"/><path class="cls-5" d="M16.42,40.5a38.55,38.55,0,0,0,6,28"/></g></g></svg>