<svg xmlns="http://www.w3.org/2000/svg" viewBox="0 0 326.99 222.5"><defs><style>.cls-1{fill:#333;}.cls-2{fill:#bcbbbb;}.cls-2,.cls-3{stroke:#333;}.cls-10,.cls-11,.cls-12,.cls-2,.cls-3,.cls-4,.cls-5,.cls-6,.cls-7,.cls-8,.cls-9{stroke-miterlimit:10;}.cls-12,.cls-2,.cls-3,.cls-7{stroke-width:5px;}.cls-3{fill:#bc9858;}.cls-10,.cls-11,.cls-12,.cls-4,.cls-5,.cls-6,.cls-7,.cls-8,.cls-9{fill:none;}.cls-4,.cls-7{stroke:#cecece;}.cls-4{stroke-width:11px;}.cls-10,.cls-11,.cls-5,.cls-6{stroke:#e6e6e6;}.cls-5{stroke-width:6px;}.cls-6{stroke-width:13px;}.cls-8,.cls-9{stroke:gray;}.cls-8{stroke-width:10px;}.cls-11,.cls-9{stroke-width:4px;}.cls-10{stroke-width:3px;}.cls-12{stroke:#7a5821;}</style></defs><g id="Layer_2" data-name="Layer 2"><g id="Layer_1-2" data-name="Layer 1"><rect class="cls-1" x="88.37" y="208.5" width="189" height="14" rx="5.5"/><line class="cls-2" x1="138.37" y1="46" x2="226.37" y2="46"/><path class="cls-2" d="M140,44.79c10.18-7.88,23.67-15.49,39.75-17.32a59,59,0,0,1,14.6,0c13.28,1.89,24.26,12.16,31.23,17.72"/><polyline class="cls-2" points="225.87 95 270.87 90 277.87 99 285.87 95 277.87 78 270.87 79 225.87 85"/><path class="cls-3" d="M325.87,146l-20,10a152.05,152.05,0,0,1-30-55l14-6a156,156,0,0,1,15.85,21.2c6.43,10.31,15.54,24.12,18.65,32.3"/><path class="cls-2" d="M.87,40c4-1.48,24.56,2.84,36,8,5.8,2.61,11,7.21,16,16,15.6,27.13,3.12,46.94,14,68,4.63,9,14.62,20.35,39,28l6-12c-17.68-2.62-26.37-9.52-31-15-16.3-19.3-2.83-45.32-20-74-5.41-9-10-16-18-20-9.91-5-19.94-3.94-25-3Z"/><path class="cls-3" d="M169.62,11.84a6.52,6.52,0,0,1,4-7.38,28.56,28.56,0,0,1,9.29-1.93c4.13-.15,9.81.11,13.16,3.47,5.54,5.54-2.08,15.93-7.62,19.39-2.26,1.41-5.54.69-5.54.69a8.2,8.2,0,0,1-5.54-1.38A21.84,21.84,0,0,1,169.62,11.84Z"/><path class="cls-2" d="M269.59,186.54c-2.89-10-5.53-13.63-13.38-31.54-9-20.5-16.88-37.21-24.85-60.21-.92-2.65-1.39-4-1.91-5.74a116.77,116.77,0,0,1-4.78-42h-84.1a117,117,0,0,1-4.78,42.05c-.53,1.73-1,3.09-1.91,5.74-8,23-15.87,39.71-24.85,60.21-7.86,17.91-10.49,21.58-13.38,31.54a143.51,143.51,0,0,0-4.78,23.89h183.5A143.51,143.51,0,0,0,269.59,186.54Z"/><path class="cls-4" d="M149.87,55c3.93,22.59.72,38.54-3,49-2.07,5.8-4,9.19-13,28-7,14.65-11.45,19.92-15,30-1.11,3.16-3,12.06-5,24-1.14,6.64-1.71,16.43-2,21"/><path class="cls-5" d="M175.87,35c-.86.78-1.53,1.48-2,2a21.71,21.71,0,0,0-3,4,18.27,18.27,0,0,0-1,2"/><path class="cls-6" d="M168.37,96.5a196.7,196.7,0,0,1-7,27c-5.38,15.95-11.31,20.81-15.5,32.5-3.3,9.21-5,32.16-5,51"/><path class="cls-7" d="M160.87,37l-3,3-3,3"/><path class="cls-8" d="M216.87,56c-1.41,25.41,3.81,42.73,9,54,3.57,7.76,7.59,13.63,14,29,3.74,9,7.26,17.5,10,29a203.13,203.13,0,0,1,4.5,39.5"/><path class="cls-9" d="M274.37,86.5l4,7"/><path class="cls-10" d="M31.87,39a31.36,31.36,0,0,1,11,4c6.51,3.89,9.68,9.28,13,15a67.24,67.24,0,0,1,7.5,19.5"/><path class="cls-9" d="M67.37,112.5c-.15,3.85.08,5.51,2,12a49.77,49.77,0,0,0,6,13"/><path class="cls-11" d="M93.37,146.5a15.87,15.87,0,0,0,11,5"/><path class="cls-9" d="M204.37,34.5a54.52,54.52,0,0,1,9,8"/><path class="cls-12" d="M282.37,111.5c3.38,6.6,7.35,13.66,12,21s9.43,14.07,14,20"/><path class="cls-12" d="M193.87,10a19.06,19.06,0,0,1-7,12"/></g></g></svg>