<svg xmlns="http://www.w3.org/2000/svg" viewBox="0 0 73.53 334.03"><defs><style>.cls-1{fill:#a8a8a8;}.cls-1,.cls-2{stroke:#333;stroke-width:5px;}.cls-1,.cls-2,.cls-3,.cls-4{stroke-miterlimit:10;}.cls-2{fill:#d6d6d6;}.cls-3,.cls-4{fill:#fff;stroke:#fff;}.cls-3{stroke-width:10px;}.cls-4{stroke-width:7px;}</style></defs><g id="Layer_2" data-name="Layer 2"><g id="Layer_1-2" data-name="Layer 1"><path class="cls-1" d="M28.24,3.07c-11,4-25.4,32.37-25.69,53.14-.3,22.21,0,28.7,22.45,61.65,2.05,3,7.1,30.84,9.09,64.83,2.06,35.29.3,91.21,0,101-.07,2.24-.58,18.09,4.54,34,1.88,5.85,4.31,13.16,8.44,13.82,5.46.87,9.86-11.25,10.39-12.75,4.9-13.85,2.43-30,1.3-38.27-.72-5.3-1.56-35.78-3.25-96.72-.91-33.1-6.43-51.2,0-64.83,13-27.63,17-41.88,15-61.65C67.6,27.87,42.06-2,28.24,3.07Z"/><path class="cls-2" d="M10.55,66c1.74,17.83,6.58,27.55,10.78,33.17,3.58,4.78,10.06,11.09,12.74,23a46,46,0,0,1,1,6.37"/><path class="cls-2" d="M53.55,33a90.69,90.69,0,0,1,6,21c1.89,12,3.86,24.43-2,36-2,4-4.95,7.78-8,16a82.57,82.57,0,0,0-3,10"/><path class="cls-3" d="M28.55,19a44.68,44.68,0,0,0-13,33"/><path class="cls-4" d="M47.05,168.53a630.34,630.34,0,0,1,4,105c-.61,13.53-1.65,26.55-3,39"/></g></g></svg>