<svg xmlns="http://www.w3.org/2000/svg" viewBox="0 0 249.96 161.38"><defs><style>.cls-1{fill:#513024;}.cls-1,.cls-2,.cls-3,.cls-4,.cls-5,.cls-6,.cls-7{stroke:#232323;stroke-miterlimit:10;stroke-width:5px;}.cls-2{fill:#472615;}.cls-3{fill:#30170d;}.cls-4{fill:#47291f;}.cls-5{fill:#59372d;}.cls-6{fill:#56352b;}.cls-7{fill:#492a25;}</style></defs><g id="Layer_2" data-name="Layer 2"><g id="Layer_1-2" data-name="Layer 1"><path class="cls-1" d="M133.4,28.5,57.24,20.62a.23.23,0,0,1,0-.46L118.14,2.5h0l59.8,5a.07.07,0,0,1,0,.13L133.44,28.49Z"/><polygon class="cls-2" points="135.53 73 36.53 57.56 56.53 20.5 132.53 27.7 135.53 73"/><path class="cls-3" d="M195.53,31.08,137.31,73.51a.36.36,0,0,1-.57-.26l-4.19-43.5a.38.38,0,0,1,.2-.36l46.91-21.8a.36.36,0,0,1,.45.12l15.5,22.88A.36.36,0,0,1,195.53,31.08Z"/><path class="cls-4" d="M153.65,66.5l76.55,1.32a.24.24,0,0,0,.1-.46L171.92,42.52h0l-60-2.23c-.07,0-.1.09,0,.13l41.72,26.07Z"/><polygon class="cls-3" points="146.2 110.42 246.34 106.97 230.93 67.78 154.61 65.82 146.2 110.42"/><path class="cls-3" d="M91.66,61.61l52.71,49.11a.36.36,0,0,0,.59-.19l9.38-42.69a.35.35,0,0,0-.16-.37L110.23,40.19a.37.37,0,0,0-.46.07L91.63,61.12A.36.36,0,0,0,91.66,61.61Z"/><path class="cls-2" d="M186.81,104.78a.23.23,0,0,0,.1-.45l-58.2-25.25s0,0,0,0L68.74,76.42a.07.07,0,0,0,0,.13l39.46,36.18Z"/><polygon class="cls-3" points="98.64 157.53 199.41 131.41 186.33 104.12 107.37 112.98 98.64 157.53"/><path class="cls-2" d="M38.72,93.26l55.87,65.55a.2.2,0,0,0,.35-.1L104,113,67.29,77.65Z"/><path class="cls-5" d="M77.83,53.7,5.62,79.15a.24.24,0,0,1-.24-.4l47.53-42h0l56.18-21.08c.07,0,.13.06.08.11L77.86,53.68Z"/><polygon class="cls-2" points="98.78 93.02 2.68 121.39 4.92 79.34 76.7 53.36 98.78 93.02"/><path class="cls-3" d="M135.1,29.47,100.61,92.72a.36.36,0,0,1-.62,0L77.6,55.19a.33.33,0,0,1,0-.4L110.71,15a.34.34,0,0,1,.45-.08L135,29A.36.36,0,0,1,135.1,29.47Z"/><path class="cls-6" d="M154,76.16l44.63-26.6a.06.06,0,0,0,0-.11L139.39,43h0L81.84,62.31a.06.06,0,0,0,0,.12L154,76.17Z"/><polygon class="cls-7" points="153.99 109.78 63.53 86.51 81.62 63.25 153.13 77.04 153.99 109.78"/><polygon class="cls-3" points="216.03 66.7 157.44 108.92 154.29 77.53 199.66 50.33 216.03 66.7"/></g></g></svg>