<svg xmlns="http://www.w3.org/2000/svg" xmlns:xlink="http://www.w3.org/1999/xlink" viewBox="0 0 249.32 207"><defs><style>.cls-1{fill:#333;}.cls-2{fill:#c5d5d8;}.cls-2,.cls-3,.cls-4{stroke:#333;stroke-width:5px;}.cls-10,.cls-11,.cls-2,.cls-3,.cls-4,.cls-5,.cls-6,.cls-7,.cls-8,.cls-9{stroke-miterlimit:10;}.cls-3{fill:url(#linear-gradient);}.cls-4{fill:#b5c4c6;}.cls-10,.cls-11,.cls-5,.cls-6,.cls-7,.cls-8,.cls-9{fill:none;}.cls-11,.cls-5,.cls-6,.cls-8{stroke:#e6e6e6;}.cls-5{stroke-width:8px;}.cls-6{stroke-width:7px;}.cls-7,.cls-9{stroke:gray;}.cls-7{stroke-width:16px;opacity:0.53;}.cls-10,.cls-8{stroke-width:11px;}.cls-9{stroke-width:10px;}.cls-10{stroke:#cecece;}.cls-11{stroke-width:19px;opacity:0.48;}</style><linearGradient id="linear-gradient" x1="210" y1="153.25" x2="2.5" y2="153.25" gradientUnits="userSpaceOnUse"><stop offset="0" stop-color="#301602"/><stop offset="0.32" stop-color="#331803"/><stop offset="0.58" stop-color="#3e2007"/><stop offset="0.83" stop-color="#4f2c0d"/><stop offset="1" stop-color="#603813"/></linearGradient></defs><g id="Layer_2" data-name="Layer 2"><g id="Layer_1-2" data-name="Layer 1"><path class="cls-1" d="M205.5,138.68,233,126.74l2.49-2.39A135.19,135.19,0,0,0,223,85a139.34,139.34,0,0,0-20-29.84l-2.49-1.19-34.93,2.38-15-10.74L200.51,42H203a104,104,0,0,1,36.19,40.58,98.37,98.37,0,0,1,10,48.94l-2.5,2.38L205.5,153Z"/><path class="cls-2" d="M130.29,47.5H82.42C48.76,47.5,19.81,70.17,8.08,102h196.4C192.82,70.18,163.91,47.5,130.29,47.5Z"/><path class="cls-3" d="M203.66,102H8.9a1.18,1.18,0,0,0-1.11.82A90.68,90.68,0,0,0,2.5,133.39v23.15c0,26.38,20.08,48,44.62,48h119c24.14,0,43.89-21.23,43.89-47.17V133.16a90.43,90.43,0,0,0-5.22-30.34A1.2,1.2,0,0,0,203.66,102Z"/><path class="cls-2" d="M106.47,10H28.89c-.46,0-.54,1.2-.09,1.4,3.36,1.52,7.71,4.6,12,11,5.36,8,8.12,17.49,9.38,22.65H160.69c1.26-5.16,4-14.65,9.39-22.65a36.3,36.3,0,0,1,6.06-7.06c1.47-1.29,1-5.29-.63-5.29Z"/><ellipse class="cls-4" cx="103.54" cy="9.5" rx="74.96" ry="7"/><rect class="cls-1" x="40.5" y="42" width="126" height="16" rx="5.5"/><path class="cls-5" d="M44,70.5a39.1,39.1,0,0,0-20,19"/><path class="cls-6" d="M19,110.5c-.82,4.11-2,10.35-3,18-2.06,15.26-3,23.08-1,32a52.7,52.7,0,0,0,8,18"/><path class="cls-7" d="M159.5,65a86,86,0,0,1,23,25c8.72,14.53,10.68,28,13,44,1.43,9.85,2.37,16.72,1,26a70.84,70.84,0,0,1-10,27"/><path class="cls-8" d="M49.49,22.5a21.14,21.14,0,0,1,8.19,6,20.56,20.56,0,0,1,4.1,8"/><path class="cls-9" d="M161.61,19a28.12,28.12,0,0,0-6.84,9.88A30.32,30.32,0,0,0,152.5,40"/><path class="cls-10" d="M78.16,21.5a45.17,45.17,0,0,1,3.07,9,43.78,43.78,0,0,1,1,7"/><path class="cls-11" d="M76,63.5a143.45,143.45,0,0,0-6,21c-2,9.77-2.39,16.89-3,29a353.67,353.67,0,0,0,0,38c.92,16.19,2.48,23,4,28a92.35,92.35,0,0,0,6,15"/></g></g></svg>