<svg xmlns="http://www.w3.org/2000/svg" xmlns:xlink="http://www.w3.org/1999/xlink" viewBox="0 0 177 235.5"><defs><style>.cls-1,.cls-5{fill:#baced3;}.cls-1,.cls-3,.cls-4,.cls-5{stroke:#333;}.cls-1,.cls-10,.cls-11,.cls-12,.cls-13,.cls-14,.cls-3,.cls-4,.cls-5,.cls-6,.cls-7,.cls-8,.cls-9{stroke-miterlimit:10;}.cls-1,.cls-3,.cls-4{stroke-width:5px;}.cls-2{fill:#999;opacity:0.79;}.cls-3{fill:url(#linear-gradient);}.cls-4{fill:#ba7d1c;}.cls-5{stroke-width:3px;}.cls-10,.cls-11,.cls-12,.cls-13,.cls-14,.cls-6,.cls-7,.cls-9{fill:none;}.cls-6{stroke:#c7b299;}.cls-12,.cls-6{stroke-width:4px;}.cls-14,.cls-7{stroke:#f2f2f2;}.cls-10,.cls-7,.cls-8{stroke-width:20px;}.cls-7{opacity:0.68;}.cls-8{stroke:#999;fill:url(#linear-gradient-2);}.cls-11,.cls-12,.cls-13,.cls-9{stroke:#e6e6e6;}.cls-9{stroke-width:22px;opacity:0.53;}.cls-10{stroke:#666;opacity:0.5;}.cls-11{stroke-width:17px;opacity:0.54;}.cls-12{opacity:0.77;}.cls-13{stroke-width:2px;opacity:0.87;}.cls-14{stroke-width:23px;opacity:0.14;}</style><linearGradient id="linear-gradient" x1="31" y1="134.5" x2="146" y2="134.5" gradientUnits="userSpaceOnUse"><stop offset="0" stop-color="#301602"/><stop offset="0.32" stop-color="#331803"/><stop offset="0.58" stop-color="#3e2007"/><stop offset="0.83" stop-color="#4f2c0d"/><stop offset="1" stop-color="#603813"/></linearGradient><linearGradient id="linear-gradient-2" x1="89.71" y1="210.03" x2="133.17" y2="210.03" gradientTransform="matrix(0.61, 0.04, 0.04, 1.38, 48.92, -86.8)" xlink:href="#linear-gradient"/></defs><g id="Layer_2" data-name="Layer 2"><g id="Layer_1-2" data-name="Layer 1"><path class="cls-1" d="M173.5,16.5H4.5L28.13,211.59h0c0,11.82,26.8,21.4,59.87,21.4s59.86-9.58,59.86-21.4h0C155.9,147.09,165.46,81,173.5,16.5Z"/><ellipse class="cls-2" cx="89.5" cy="195.5" rx="35.5" ry="7.5"/><path class="cls-3" d="M146,84H31l15.21,91h0c0,5.51,18.86,10,42.11,10s42.11-4.47,42.11-10h0C136.09,144.92,140.34,114.09,146,84Z"/><ellipse class="cls-1" cx="88.5" cy="15.5" rx="86" ry="13"/><path class="cls-4" d="M145.2,87.12C145.2,92,117.93,94,87.55,94s-50-4.5-55-8.75l-1.76-2L25.5,62.82V57.34c1.16-4.67,32.41-6.05,62.05-6.05s65.29.59,66.45,5.26l-1.76,7.84-4.4,15.68Z"/><ellipse class="cls-4" cx="89.5" cy="57.3" rx="64" ry="10.8"/><ellipse class="cls-5" cx="87.5" cy="15.5" rx="69.5" ry="6"/><path class="cls-6" d="M126.55,54.53c1.16-.17,9.52-1.38,15.53.54.66.21,4.36,1.39,3.88,2.69-.59,1.56-6.94,2.29-10.35,2.68A114.92,114.92,0,0,1,124,61c-2.68,0-4.91,0-6.47,0"/><path class="cls-6" d="M39,57c5.42-3.39,11.3-3.09,14.67-4,5.73-1.54,10.6-1.74,16.82-2,4.33-.18,8-.11,10.51,0"/><path class="cls-6" d="M60,63c5.4.19,11.85.33,19.13.34,8,0,15.07-.14,20.87-.34"/><path class="cls-7" d="M39.5,206.5a74.94,74.94,0,0,0,40,8"/><path class="cls-8" d="M112.15,213.81c3.83,1,10,1.35,16.72-3.65A39.14,39.14,0,0,0,138,200"/><path class="cls-9" d="M20,34a263.38,263.38,0,0,1,25.42,90.93A256,256,0,0,1,43.11,189"/><path class="cls-10" d="M137.94,192.7a595.67,595.67,0,0,1,8-96.8A609.27,609.27,0,0,1,161,29"/><path class="cls-11" d="M96,63a55,55,0,0,1,2-19,54,54,0,0,1,4-10"/><path class="cls-12" d="M32,8c6.74-1,12.42-1.43,16.44-1.67,9.43-.55,17.06-.32,27.41,0,5.49.17,10,.39,13.15.56"/><path class="cls-13" d="M107,24c10.44-.72,21.31-1.7,32.58-3q15.28-1.76,29.42-4"/><path class="cls-14" d="M86.24,199A361.27,361.27,0,0,1,94,89"/></g></g></svg>