<?xml version="1.0" encoding="UTF-8" standalone="no"?>
<!-- Created with Inkscape (http://www.inkscape.org/) -->

<svg xmlns:dc="http://purl.org/dc/elements/1.1/" xmlns:cc="http://creativecommons.org/ns#" xmlns:rdf="http://www.w3.org/1999/02/22-rdf-syntax-ns#" xmlns:svg="http://www.w3.org/2000/svg" xmlns="http://www.w3.org/2000/svg" xmlns:sodipodi="http://sodipodi.sourceforge.net/DTD/sodipodi-0.dtd" xmlns:inkscape="http://www.inkscape.org/namespaces/inkscape" width="540" height="600" viewBox="0 0 540 600" id="svg2" version="1.1" inkscape:version="0.91 r13725" sodipodi:docname="kettle.svg">
  <defs id="defs4" />
  <sodipodi:namedview id="base" pagecolor="#c0a5cd" bordercolor="#666666" borderopacity="1.0" inkscape:pageopacity="0" inkscape:pageshadow="2" inkscape:zoom="0.46611" inkscape:cx="83.726" inkscape:cy="25.348" inkscape:document-units="px" inkscape:current-layer="picture" showgrid="false" units="px" inkscape:window-width="1680" inkscape:window-height="1001" inkscape:window-x="0" inkscape:window-y="25" inkscape:window-maximized="1" />
  <metadata id="metadata7">
    <rdf:RDF>
      <cc:Work rdf:about="">
        <dc:format>image/svg+xml</dc:format>
        <dc:type rdf:resource="http://purl.org/dc/dcmitype/StillImage" />
        <dc:title></dc:title>
      </cc:Work>
    </rdf:RDF>
  </metadata>
  <g inkscape:label="picture" inkscape:groupmode="layer" id="picture" transform="translate(0,300)">
    <g id="g3709" transform="matrix(0.66207,0,0,0.66207,232.58,-77.84)">
      <circle style="fill:none" id="circle194" r="26.238" cy="-48.175" cx="113.58" />
      <path style="fill:none" inkscape:connector-curvature="0" id="path196" d="M 123.78,-281.78 C 4.5763,-281.78 -92.124,-186.98 -92.124,-70.075 -92.124,-23.575 -76.824,19.425 -50.924,54.425 -32.824,45.725 -15.124,38.625 1.5763,32.725 64.476,10.625 113.58,6.025 113.58,6.025 83.676,6.025 59.376,-18.275 59.376,-48.175 59.376,-78.075 83.676,-102.38 113.58,-102.38 143.48,-102.38 167.78,-78.075 167.78,-48.175 167.78,-18.275 143.48,6.025 113.58,6.025 113.58,6.025 162.68,10.625 225.58,32.725 246.88,40.225 269.68,49.725 292.78,61.725 322.08,25.525 339.68,-20.275 339.68,-70.075 339.68,-186.98 242.98,-281.78 123.78,-281.78 Z" />
      <path style="fill:#686867" inkscape:connector-curvature="0" id="path198" d="M 1.5763,32.725 C 17.676,44.725 61.776,53.225 113.58,53.225 165.38,53.225 209.38,44.725 225.48,32.725 162.68,10.625 113.58,6.025 113.58,6.025 113.58,6.025 64.476,10.625 1.5763,32.725 Z" />
      <path inkscape:connector-curvature="0" id="path200" d="M 167.78,-47.275 C 167.78,-77.175 143.48,-101.48 113.58,-101.48 83.676,-101.48 59.476,-77.175 59.476,-47.275 59.476,-17.375 83.676,6.925 113.58,6.925 143.48,6.925 167.78,-17.375 167.78,-47.275 Z M 113.58,-21.075 C 99.076,-21.075 87.376,-32.775 87.376,-47.275 87.376,-61.775 99.076,-73.475 113.58,-73.475 128.08,-73.475 139.88,-61.775 139.88,-47.275 139.88,-32.775 128.08,-21.075 113.58,-21.075 Z" />
      <path inkscape:connector-curvature="0" id="path202" d="M -92.124,-70.075 C -92.124,-186.98 4.4763,-281.78 123.78,-281.78 242.98,-281.78 339.58,-186.98 339.58,-70.075 339.58,-20.275 322.08,25.525 292.68,61.725 307.38,69.325 322.18,78.025 336.58,87.725 370.48,43.925 390.58,-10.775 390.58,-70.075 390.58,-214.68 271.08,-331.78 123.78,-331.78 -23.624,-331.78 -143.12,-214.68 -143.12,-70.075 -143.12,-14.775 -125.62,36.525 -95.724,78.825 -80.824,69.525 -65.824,61.425 -50.924,54.325 -76.824,19.425 -92.124,-23.575 -92.124,-70.075 Z" />
      <path style="fill:#8c8c8c" inkscape:connector-curvature="0" id="path204" d="M 388.88,130.12 C 372.38,114.12 354.68,100.02 336.58,87.825 322.08,78.025 307.38,69.425 292.68,61.725 269.68,49.725 246.78,40.225 225.48,32.825 209.38,44.725 165.38,53.325 113.58,53.325 61.776,53.325 17.676,44.725 1.5763,32.825 -15.124,38.725 -32.924,45.825 -50.924,54.425 -65.824,61.525 -80.824,69.625 -95.724,78.925 -100.92,82.125 -106.12,85.525 -111.22,89.025 -128.72,100.92 -145.82,114.62 -161.82,130.12 -161.82,130.12 -185.62,142.02 -206.32,202.62 -224.82,256.32 -240.82,348.22 -235.62,504.02 -235.62,504.02 -214.52,566.92 113.58,566.92 441.58,566.92 462.78,504.02 462.78,504.02 473.68,172.62 388.88,130.12 388.88,130.12 Z" />
      <g style="fill:#686867" id="g206" transform="translate(-2634.9,-2216.8)">
        <polygon id="polygon208" points="2363.6,2358.8 2445.2,2254.9 2353.7,2195.8 2284.2,2284.9 " />
        <path inkscape:connector-curvature="0" id="path210" d="M 2456.7,2262.4 2373.6,2368.1 2428.6,2419.4 C 2449.4,2358.8 2473.2,2346.9 2473.2,2346.9 2489.2,2331.4 2506.3,2317.7 2523.8,2305.8 L 2456.7,2262.4 Z" />
      </g>
      <path style="fill:#8c8c8c" inkscape:connector-curvature="0" id="path212" d="M -178.72,35.125 C -181.62,32.825 -186.02,33.325 -188.32,36.325 L -189.72,38.125 -271.42,142.02 -272.92,143.92 C -275.22,146.92 -274.82,151.22 -271.82,153.52 -268.82,155.92 -264.52,155.32 -262.22,152.32 L -261.42,151.32 -178.32,45.525 -177.62,44.725 C -175.32,41.725 -175.72,37.425 -178.72,35.125 Z" />
    </g>
  </g>
</svg>
